<svg width="38" height="39" viewBox="0 0 38 39" fill="none" xmlns="http://www.w3.org/2000/svg">
<path d="M4.94696 7.87602L10.2047 10.3538V16.1697C10.2047 16.4703 10.4489 16.7143 10.7497 16.7143H28.014C28.3149 16.7143 28.559 16.4703 28.559 16.1697V10.3538L33.0386 8.24306V12.14C32.4053 12.3654 31.9476 12.9644 31.9476 13.6745C31.9476 14.5763 32.6811 15.3093 33.5835 15.3093C34.486 15.3093 35.2195 14.5763 35.2195 13.6745C35.2195 12.9644 34.7617 12.3654 34.1285 12.14V7.38374C34.1285 7.28789 34.0969 7.20294 34.0544 7.12452C34.0435 7.10383 34.0304 7.08749 34.0162 7.06898C33.9694 7.00472 33.9127 6.95244 33.8429 6.91432C33.8342 6.90888 33.8299 6.89798 33.8201 6.89363L19.6184 0.0539118C19.468 -0.0179706 19.2947 -0.0179706 19.1443 0.0539118L4.9426 6.89363C4.75404 6.98403 4.63306 7.1768 4.63415 7.38591C4.63633 7.59612 4.75731 7.78671 4.94696 7.87602ZM27.4691 15.6252H11.2947V7.95771L12.8849 7.70394C17.1955 7.01125 21.5672 7.01125 25.8778 7.70394L27.468 7.95771L27.4691 15.6252ZM33.5835 14.2202C33.2827 14.2202 33.0375 13.9751 33.0375 13.6745C33.0375 13.3739 33.2827 13.1289 33.5835 13.1289C33.8844 13.1289 34.1296 13.3739 34.1296 13.6745C34.1296 13.9751 33.8844 14.2202 33.5835 14.2202ZM19.3819 1.14848L32.3171 7.37829L28.559 9.14921V7.49265C28.559 7.42185 28.5437 7.35433 28.5187 7.29116C28.51 7.26938 28.4947 7.25086 28.4827 7.23017C28.462 7.19205 28.4402 7.15611 28.4108 7.12452C28.3922 7.10492 28.3705 7.09076 28.3487 7.07333C28.3181 7.04828 28.2865 7.02541 28.2506 7.00799C28.2244 6.99492 28.1972 6.98838 28.1688 6.97967C28.1448 6.97205 28.1241 6.95898 28.098 6.95462L26.05 6.62788C21.6228 5.91668 17.1355 5.91668 12.7105 6.62788L10.6614 6.95462C10.6363 6.95898 10.6156 6.97205 10.5917 6.97967C10.5633 6.98838 10.5361 6.99492 10.5099 7.00799C10.4739 7.02541 10.4434 7.04937 10.4129 7.07333C10.3922 7.09076 10.3693 7.10492 10.3508 7.12452C10.3214 7.15611 10.3007 7.19314 10.2799 7.23017C10.268 7.25086 10.2527 7.26829 10.244 7.29116C10.2189 7.35433 10.2036 7.42076 10.2036 7.49265V9.14921L6.4456 7.37829L19.3819 1.14848Z" fill="#333333"/>
<path d="M0.558824 39H37.4412C37.7496 39 38 38.7573 38 38.4583V26.5417C38 26.2427 37.7496 26 37.4412 26H25.7059V20.0417C25.7059 19.7427 25.4555 19.5 25.1471 19.5H12.8529C12.5445 19.5 12.2941 19.7427 12.2941 20.0417V28.7083H0.558824C0.250353 28.7083 0 28.951 0 29.25V38.4583C0 38.7573 0.250353 39 0.558824 39ZM36.8824 27.0833V37.9167H25.7059V27.0833H36.8824ZM13.4118 20.5833H24.5882V37.9167H13.4118V20.5833ZM1.11765 29.7917H12.2941V37.9167H1.11765V29.7917Z" fill="#333333"/>
</svg>
